HIERARCHY
ROOT Hips
{
    OFFSET   0.000000   0.000000   0.000000
    CHANNELS 6 Xposition Yposition Zposition Zrotation Xrotation Yrotation
    JOINT Chest
    {
        OFFSET   0.000000   8.007230   0.000000
        CHANNELS 3 Zrotation Xrotation Yrotation
        JOINT Chest2
        {
            OFFSET   0.000000  22.077100   0.000000
            CHANNELS 3 Zrotation Xrotation Yrotation
            JOINT Neck
            {
                OFFSET   0.000000  23.254700   0.000000
                CHANNELS 3 Zrotation Xrotation Yrotation
                JOINT Head
                {
                    OFFSET   0.000010  14.370000   1.956610
                    CHANNELS 3 Zrotation Xrotation Yrotation
                    End Site
                    {
                        OFFSET   0.000000  19.566000   0.000000
                    }
                }
            }
            JOINT LeftCollar
            {
                OFFSET   3.911900  19.017000  -0.467063
                CHANNELS 3 Zrotation Xrotation Yrotation
                JOINT LeftShoulder
                {
                    OFFSET  10.383700   0.000000   0.000000
                    CHANNELS 3 Zrotation Xrotation Yrotation
                    JOINT LeftElbow
                    {
                        OFFSET  26.662100   0.001671   0.000522
                        CHANNELS 3 Zrotation Xrotation Yrotation
                        JOINT LeftWrist
                        {
                            OFFSET  28.869000   0.000037  -0.000114
                            CHANNELS 3 Zrotation Xrotation Yrotation
                            JOINT LeftFinger0
                            {
                                OFFSET   2.044650  -2.323450   3.252850
                                CHANNELS 3 Zrotation Xrotation Yrotation
                                JOINT LeftFinger01
                                {
                                    OFFSET   3.088140   0.000000   0.000000
                                    CHANNELS 3 Zrotation Xrotation Yrotation
                                    JOINT LeftFinger02
                                    {
                                        OFFSET   2.639460   0.000000   0.000000
                                        CHANNELS 3 Zrotation Xrotation Yrotation
                                        End Site
                                        {
                                            OFFSET   2.582190   0.000000   0.000000
                                        }
                                    }
                                }
                            }
                            JOINT LeftFinger1
                            {
                                OFFSET   8.364480   0.000000   3.252850
                                CHANNELS 3 Zrotation Xrotation Yrotation
                                JOINT LeftFinger11
                                {
                                    OFFSET   4.646930   0.000000   0.000000
                                    CHANNELS 3 Zrotation Xrotation Yrotation
                                    JOINT LeftFinger12
                                    {
                                        OFFSET   2.323470   0.000000   0.000000
                                        CHANNELS 3 Zrotation Xrotation Yrotation
                                        End Site
                                        {
                                            OFFSET   2.273050   0.000000   0.000000
                                        }
                                    }
                                }
                            }
                            JOINT LeftFinger2
                            {
                                OFFSET   8.364490   0.000016   1.078090
                                CHANNELS 3 Zrotation Xrotation Yrotation
                                JOINT LeftFinger21
                                {
                                    OFFSET   5.111620   0.000000   0.000000
                                    CHANNELS 3 Zrotation Xrotation Yrotation
                                    JOINT LeftFinger22
                                    {
                                        OFFSET   2.788150   0.000013   0.000000
                                        CHANNELS 3 Zrotation Xrotation Yrotation
                                        End Site
                                        {
                                            OFFSET   2.727660   0.000000   0.000000
                                        }
                                    }
                                }
                            }
                            JOINT LeftFinger3
                            {
                                OFFSET   7.899780   0.000016  -1.078090
                                CHANNELS 3 Zrotation Xrotation Yrotation
                                JOINT LeftFinger31
                                {
                                    OFFSET   4.646930   0.000000   0.000000
                                    CHANNELS 3 Zrotation Xrotation Yrotation
                                    JOINT LeftFinger32
                                    {
                                        OFFSET   2.323470   0.000000   0.000000
                                        CHANNELS 3 Zrotation Xrotation Yrotation
                                        End Site
                                        {
                                            OFFSET   2.273050   0.000000   0.000000
                                        }
                                    }
                                }
                            }
                            JOINT LeftFinger4
                            {
                                OFFSET   7.435080   0.000000  -3.252850
                                CHANNELS 3 Zrotation Xrotation Yrotation
                                JOINT LeftFinger41
                                {
                                    OFFSET   3.717550   0.000000   0.000000
                                    CHANNELS 3 Zrotation Xrotation Yrotation
                                    JOINT LeftFinger42
                                    {
                                        OFFSET   1.858760   0.000000   0.000000
                                        CHANNELS 3 Zrotation Xrotation Yrotation
                                        End Site
                                        {
                                            OFFSET   1.818440   0.000000   0.000000
                                        }
                                    }
                                }
                            }
                        }
                    }
                }
            }
            JOINT RightCollar
            {
                OFFSET  -3.911900  19.017000  -0.467064
                CHANNELS 3 Zrotation Xrotation Yrotation
                JOINT RightShoulder
                {
                    OFFSET -10.383700   0.000000   0.000000
                    CHANNELS 3 Zrotation Xrotation Yrotation
                    JOINT RightElbow
                    {
                        OFFSET -26.662100   0.001633   0.000260
                        CHANNELS 3 Zrotation Xrotation Yrotation
                        JOINT RightWrist
                        {
                            OFFSET -28.869000  -0.000045  -0.000080
                            CHANNELS 3 Zrotation Xrotation Yrotation
                            JOINT RightFinger0
                            {
                                OFFSET  -2.044660  -2.323490   3.252850
                                CHANNELS 3 Zrotation Xrotation Yrotation
                                JOINT RightFinger01
                                {
                                    OFFSET  -3.088140   0.000000   0.000000
                                    CHANNELS 3 Zrotation Xrotation Yrotation
                                    JOINT RightFinger02
                                    {
                                        OFFSET  -2.639450   0.000000   0.000000
                                        CHANNELS 3 Zrotation Xrotation Yrotation
                                        End Site
                                        {
                                            OFFSET  -2.582190   0.000000   0.000000
                                        }
                                    }
                                }
                            }
                            JOINT RightFinger1
                            {
                                OFFSET  -8.364480   0.000000   3.252850
                                CHANNELS 3 Zrotation Xrotation Yrotation
                                JOINT RightFinger11
                                {
                                    OFFSET  -4.646920   0.000000   0.000000
                                    CHANNELS 3 Zrotation Xrotation Yrotation
                                    JOINT RightFinger12
                                    {
                                        OFFSET  -2.323470   0.000000   0.000000
                                        CHANNELS 3 Zrotation Xrotation Yrotation
                                        End Site
                                        {
                                            OFFSET  -2.273050   0.000000   0.000000
                                        }
                                    }
                                }
                            }
                            JOINT RightFinger2
                            {
                                OFFSET  -8.364480   0.000000   1.078090
                                CHANNELS 3 Zrotation Xrotation Yrotation
                                JOINT RightFinger21
                                {
                                    OFFSET  -5.111610   0.000000   0.000000
                                    CHANNELS 3 Zrotation Xrotation Yrotation
                                    JOINT RightFinger22
                                    {
                                        OFFSET  -2.788160   0.000000   0.000000
                                        CHANNELS 3 Zrotation Xrotation Yrotation
                                        End Site
                                        {
                                            OFFSET  -2.727660   0.000000   0.000000
                                        }
                                    }
                                }
                            }
                            JOINT RightFinger3
                            {
                                OFFSET  -7.899780   0.000000  -1.078090
                                CHANNELS 3 Zrotation Xrotation Yrotation
                                JOINT RightFinger31
                                {
                                    OFFSET  -4.646930   0.000000   0.000000
                                    CHANNELS 3 Zrotation Xrotation Yrotation
                                    JOINT RightFinger32
                                    {
                                        OFFSET  -2.323470   0.000000   0.000000
                                        CHANNELS 3 Zrotation Xrotation Yrotation
                                        End Site
                                        {
                                            OFFSET  -2.273050   0.000000   0.000000
                                        }
                                    }
                                }
                            }
                            JOINT RightFinger4
                            {
                                OFFSET  -7.435090   0.000000  -3.252850
                                CHANNELS 3 Zrotation Xrotation Yrotation
                                JOINT RightFinger41
                                {
                                    OFFSET  -3.717550   0.000000   0.000000
                                    CHANNELS 3 Zrotation Xrotation Yrotation
                                    JOINT RightFinger42
                                    {
                                        OFFSET  -1.858760   0.000000   0.000000
                                        CHANNELS 3 Zrotation Xrotation Yrotation
                                        End Site
                                        {
                                            OFFSET  -1.818440   0.000000   0.000000
                                        }
                                    }
                                }
                            }
                        }
                    }
                }
            }
        }
    }
    JOINT LeftHip
    {
        OFFSET   9.782990   0.000000   0.000000
        CHANNELS 3 Zrotation Xrotation Yrotation
        JOINT LeftKnee
        {
            OFFSET  -0.000063 -41.789100   0.001657
            CHANNELS 3 Zrotation Xrotation Yrotation
            JOINT LeftAnkle
            {
                OFFSET   0.000078 -41.133200  -0.000113
                CHANNELS 3 Zrotation Xrotation Yrotation
                JOINT LeftToe
                {
                    OFFSET   0.000000  -6.358970  14.674500
                    CHANNELS 3 Zrotation Xrotation Yrotation
                    End Site
                    {
                        OFFSET   0.000000   0.000000   3.913200
                    }
                }
            }
        }
    }
    JOINT RightHip
    {
        OFFSET  -9.782990   0.000000   0.000000
        CHANNELS 3 Zrotation Xrotation Yrotation
        JOINT RightKnee
        {
            OFFSET   0.000053 -41.789200   0.000277
            CHANNELS 3 Zrotation Xrotation Yrotation
            JOINT RightAnkle
            {
                OFFSET   0.000030 -41.133200  -0.000150
                CHANNELS 3 Zrotation Xrotation Yrotation
                JOINT RightToe
                {
                    OFFSET   0.000000  -6.358960  14.674500
                    CHANNELS 3 Zrotation Xrotation Yrotation
                    End Site
                    {
                        OFFSET   0.000000   0.000000   3.913200
                    }
                }
            }
        }
    }
}
MOTION
Frames: 4
Frame Time:   0.016667
  0.270942  89.556100  -1.504580  -2.823310  -6.907340  -0.024880   0.627235   4.695730   0.545823   1.215530   9.396980   1.045140   0.268597  -0.940416  -0.000218   0.443666  -1.906580   0.753756  -3.950040  -3.138970   0.814200 -75.504200  16.029200  -1.941000  -1.995520  -4.763570 -13.359300  10.745000  -2.017280   2.446080  37.825900  26.096100 -56.005000 -28.912500   0.000733   0.000413  -9.467640  -0.000130  -0.001071 -20.775800   3.140170  -8.214500 -17.181300  -0.001356   0.000324 -12.026000   0.000000  -0.006042 -26.439900   0.246905  -0.484633 -26.441000  -0.008123  -0.001987 -17.609700  -0.004239  -0.009779 -23.979400   0.225399  -0.494514 -23.980300   0.002751   0.002244 -15.970900   0.006018   0.001919 -22.863000   0.215435  -0.498728 -34.295900   0.000712  -0.001210 -22.841100   0.004259   0.002585   9.813520   0.663868   7.149260  69.883400   5.612120  -3.238800   0.807265 -11.057900   9.317470 -13.199100  -8.258310   3.310170 -41.100100  37.807100  79.757700  26.436500   0.010183  -0.004956   8.218250   0.001156  -0.000138  29.904000   8.682740  14.701500  25.388100  -0.000827  -0.000757  17.771000  -0.004257  -0.006148  31.631500   4.932220   7.951180  47.962400   0.007882   0.003408  31.943000   0.007454   0.013026  28.664400   2.840850   5.181400  41.729200   0.011930  -0.001716  27.791600   0.014342   0.009721  39.517800  -0.938507  -1.138980  59.290700  -0.001716   0.000000  39.487600   0.000121  -0.007227   2.355240   8.435740   3.088630   0.874906   0.001010   1.485520  -1.232020  -2.516800   0.740106  -0.000000   0.000000   0.000000   4.289560   6.400390   0.857222  -2.870580   4.896180  -7.000740   1.396800  -4.982380   0.084553   0.000000   0.000000  -0.000000
  0.275696  89.556100  -1.487420  -2.824430  -6.908230  -0.034158   0.627402   4.704770   0.548503   1.215680   9.415110   1.050430   0.272753  -0.931904  -0.000208   0.449511  -1.889640   0.753857  -3.950190  -3.138960   0.811369 -75.494200  16.035900  -1.946460  -2.006560  -4.773950 -13.359400  10.736000  -2.009010   2.446260  37.818400  26.100400 -56.012500 -28.923900   0.000744   0.000427  -9.467640  -0.000127  -0.001063 -20.775800   3.140140  -8.214500 -17.181300  -0.001363   0.000326 -12.026100  -0.000028  -0.006041 -26.439900   0.242408  -0.480761 -26.441000  -0.008105  -0.001968 -17.609700  -0.004240  -0.009762 -23.979400   0.221296  -0.490572 -23.980200   0.002743   0.002245 -15.970900   0.006018   0.001920 -22.863000   0.211517  -0.494745 -34.295900   0.000703  -0.001207 -22.841100   0.004259   0.002578   9.814070   0.663726   7.149160  69.883700   5.616540  -3.238530   0.816757 -11.057900   9.317570 -13.191200  -8.240470   3.307430 -41.103300  37.809800  79.731700  26.456700   0.010188  -0.004981   8.228390   0.001157  -0.000129  29.907900   8.675610  14.689000  25.388100  -0.000824  -0.000753  17.770900  -0.004261  -0.006144  31.628100   4.932220   7.950980  47.957200   0.007879   0.003403  31.939500   0.007448   0.013032  28.665600   2.834060   5.168920  41.735600   0.011930  -0.001717  27.795900   0.014342   0.009722  39.524600  -0.938481  -1.138980  59.301000  -0.001720   0.000000  39.494400   0.000107  -0.007234   2.354750   8.444760   3.088450   0.870836   0.012982   1.501350  -1.233330  -2.533890   0.731227  -0.000000   0.000000  -0.000000   4.289540   6.420280   0.857060  -2.872260   4.883250  -7.000320   1.402700  -4.987700   0.084540  -0.000000   0.000000   0.000000
  0.283755  89.556100  -1.458130  -2.825970  -6.911100  -0.046932   0.627378   4.719750   0.552800   1.215090   9.445130   1.058930   0.280441  -0.915683  -0.000198   0.460901  -1.857040   0.754007  -3.950590  -3.138850   0.803870 -75.477100  16.042600  -1.955080  -2.024000  -4.785680 -13.359600  10.723000  -1.995040   2.446440  37.817600  26.109600 -56.023500 -28.935300   0.000770   0.000455  -9.467620  -0.000123  -0.001054 -20.775800   3.140100  -8.214500 -17.181300  -0.001375   0.000328 -12.026200  -0.000080  -0.006041 -26.440000   0.236189  -0.474951 -26.441000  -0.008058  -0.001923 -17.609700  -0.004245  -0.009722 -23.979300   0.215632  -0.484646 -23.980100   0.002717   0.002245 -15.970800   0.006019   0.001920 -22.863100   0.206100  -0.488762 -34.295900   0.000679  -0.001198 -22.841100   0.004260   0.002559   9.815230   0.663585   7.149070  69.884200   5.627610  -3.238310   0.832767 -11.057800   9.317730 -13.184400  -8.215640   3.299480 -41.108200  37.809400  79.692700  26.485100   0.010194  -0.005014   8.242590   0.001157  -0.000113  29.913600   8.665180  14.670900  25.388200  -0.000821  -0.000749  17.770600  -0.004268  -0.006135  31.621600   4.932210   7.950780  47.947300   0.007873   0.003388  31.932800   0.007437   0.013048  28.666900   2.827270   5.156450  41.748900   0.011931  -0.001721  27.804800   0.014340   0.009722  39.535200  -0.938420  -1.138980  59.316800  -0.001727  -0.000000  39.505000   0.000078  -0.007253   2.353910   8.458410   3.088300   0.864162   0.037993   1.529130  -1.237410  -2.564040   0.712273   0.000000   0.000000  -0.000000   4.289460   6.454440   0.856848  -2.874940   4.862190  -6.999810   1.411650  -4.996790   0.084528  -0.000000   0.000000   0.000000
  0.290400  89.556200  -1.433190  -2.828310  -6.916460  -0.051638   0.626740   4.731700   0.556582   1.213300   9.469050   1.066460   0.288788  -0.899167  -0.000202   0.474550  -1.823140   0.754108  -3.948690  -3.135760   0.788026 -75.460500  16.041400  -1.959900  -2.037400  -4.786900 -13.359700  10.715700  -1.980510   2.446370  37.834300  26.128100 -56.024400 -28.928400   0.000809   0.000488  -9.464470  -0.000133  -0.001060 -20.775700   3.140170  -8.215610 -17.181200  -0.001385   0.000329 -12.026200  -0.000133  -0.006041 -26.432600   0.233802  -0.471066 -26.433600  -0.007985  -0.001857 -17.604700  -0.004253  -0.009665 -23.979100   0.213499  -0.480648 -23.979800   0.002671   0.002246 -15.970600   0.006019   0.001920 -22.858500   0.204025  -0.484749 -34.289000   0.000638  -0.001179 -22.836500   0.004263   0.002530   9.816720   0.663613   7.149300  69.884100   5.648060  -3.239610   0.847841 -11.067900   9.318170 -13.187300  -8.207170   3.283860 -41.110300  37.802500  79.663500  26.497300   0.010196  -0.005023   8.248680   0.001152  -0.000104  29.916800   8.659140  14.661100  25.388200  -0.000824  -0.000752  17.770200  -0.004276  -0.006121  31.613700   4.932190   7.951450  47.935600   0.007864   0.003362  31.924800   0.007427   0.013072  28.666900   2.827280   5.156460  41.766000   0.011927  -0.001732  27.816200   0.014338   0.009720  39.541600  -0.938329  -1.138830  59.326200  -0.001738   0.000000  39.511300   0.000045  -0.007288   2.353200   8.462680   3.088930   0.858872   0.078176   1.555360  -1.245030  -2.599120   0.688430  -0.000000   0.000000   0.000000   4.289340   6.484050   0.856791  -2.876360   4.845910  -7.000960   1.417070  -5.004120   0.085905   0.000000   0.000000  -0.000000
